<?xml version="1.0" standalone="no"?>
<!DOCTYPE svg PUBLIC "-//W3C//DTD SVG 20010904//EN"
 "http://www.w3.org/TR/2001/REC-SVG-20010904/DTD/svg10.dtd">
<svg version="1.0" xmlns="http://www.w3.org/2000/svg"
 width="341.000000pt" height="440.000000pt" viewBox="0 0 341.000000 440.000000"
 preserveAspectRatio="xMidYMid meet">
<metadata>
Created by potrace 1.16, written by Peter Selinger 2001-2019
</metadata>
<g transform="translate(0.000000,440.000000) scale(0.100000,-0.100000)"
fill="currentColor" stroke="none">
<path d="M1245 4055 c-319 -108 -689 -232 -822 -276 -134 -44 -243 -84 -243
-88 0 -7 258 -210 295 -233 7 -4 313 94 681 218 l669 225 636 -213 637 -212
67 59 c37 33 102 88 144 122 42 35 77 66 78 70 2 5 -66 30 -150 58 -83 27
-435 143 -781 257 -347 114 -630 208 -630 208 -1 0 -262 -88 -581 -195z M3280
3512 l-125 -107 -5 -740 c-6 -808 -1 -738 -67 -940 -81 -250 -283 -542 -524
-755 -179 -158 -542 -412 -671 -471 l-28 -12 0 -167 c0 -92 3 -169 6 -173 4
-3 21 4 38 17 17 13 92 61 166 106 176 108 414 269 507 343 291 230 509 498
663 812 74 150 126 306 151 455 18 108 19 161 17 927 l-3 812 -125 -107z M152
2764 l4 -839 27 -102 c135 -515 491 -982 1015 -1332 100 -66 264 -166 504
-308 31 -18 61 -33 67 -33 8 0 11 52 11 168 l0 167 -88 46 c-218 114 -587 378
-747 536 -256 252 -430 545 -498 838 -19 85 -21 125 -24 788 l-4 697 -97 78
c-53 43 -114 91 -135 107 l-38 28 3 -839z M1700 3534 c-87 -30 -907 -295 -962
-311 -17 -5 -18 -33 -18 -412 l0 -406 113 -58 c647 -331 1119 -568 1125 -562
4 3 8 53 10 110 l4 104 -33 21 c-19 11 -256 132 -526 267 l-493 247 0 257 0
258 73 21 c109 32 650 206 747 241 l85 30 335 -110 c437 -143 685 -221 699
-221 7 0 11 37 11 113 l0 114 -42 12 c-24 7 -255 82 -515 167 -259 85 -479
154 -490 154 -10 0 -65 -16 -123 -36z M1650 2920 c-96 -31 -228 -74 -293 -94
l-118 -37 3 -77 3 -77 40 -20 c22 -10 114 -54 205 -96 91 -42 286 -135 434
-205 l268 -129 1 -165 c1 -91 0 -215 -1 -276 l-2 -111 -172 -95 -171 -96 -36
22 c-39 25 -557 293 -878 455 l-203 102 0 -30 c0 -53 60 -263 102 -359 57
-131 121 -233 221 -354 174 -213 370 -367 658 -521 59 -31 112 -57 118 -57 18
0 368 215 515 318 l100 69 -3 114 c-1 63 -3 115 -5 116 -1 1 -58 -35 -126 -79
-69 -45 -206 -132 -305 -195 l-179 -112 -66 36 c-197 108 -392 261 -515 403
-65 75 -201 268 -194 274 2 2 49 -22 104 -53 165 -94 270 -152 487 -270 l206
-112 129 71 c70 40 197 113 281 162 l152 91 0 388 0 389 -187 91 c-104 50
-278 134 -388 186 -110 52 -203 98 -208 102 -7 7 189 68 208 64 6 -1 177 -55
380 -121 204 -66 385 -123 402 -127 18 -3 35 -10 38 -15 2 -4 5 -173 6 -376 1
-203 4 -418 8 -479 l6 -110 75 100 c42 55 88 118 103 141 l27 40 -2 419 -3
418 -25 8 c-78 24 -626 201 -805 260 -116 38 -212 69 -215 68 -3 0 -84 -27
-180 -59z"/>
</g>
</svg>
